<svg version="1.1" id="Layer_1" xmlns="http://www.w3.org/2000/svg" xmlns:xlink="http://www.w3.org/1999/xlink" x="0px" y="0px"
	 width="100%" viewBox="0 0 490 513" enable-background="new 0 0 490 513" xml:space="preserve">
<path fill="#000000" opacity="1.000000" stroke="none" 
	d="
M1.000000,189.000000 
	C1.000000,127.348564 1.032881,66.197052 0.910269,5.045866 
	C0.903608,1.723466 1.434342,0.897179 4.952394,0.899710 
	C165.578964,1.015285 326.205688,1.018867 486.832214,0.886155 
	C490.664948,0.882989 491.079468,1.951793 491.077698,5.330245 
	C490.989136,173.455002 490.987579,341.579803 491.086548,509.704529 
	C491.088593,513.183533 490.530792,514.109436 486.797424,514.106506 
	C326.337463,513.982788 165.877426,513.981934 5.417478,514.106140 
	C1.484026,514.109192 0.911367,513.017090 0.914904,509.419556 
	C1.019752,402.779785 1.000000,296.139893 1.000000,189.000000 
z"/>
<path fill="#1E1F1D" opacity="1.000000" stroke="none" 
	d="
M476.225830,156.618622 
	C475.973389,157.193619 475.946350,157.415100 475.868347,157.967377 
	C475.175232,159.613953 475.686249,161.036942 475.219727,162.659058 
	C475.010895,163.694656 475.019470,164.460464 475.016144,165.609024 
	C473.998383,167.359268 474.761993,168.953583 474.219025,170.719421 
	C471.457123,188.047394 465.492798,204.023651 459.602356,220.085495 
	C453.858551,235.747589 445.776733,250.224609 438.481018,265.111328 
	C437.654694,266.797394 436.589325,268.221863 435.142822,269.824463 
	C434.484467,270.487244 434.524841,271.094940 434.157410,271.830078 
	C433.994415,272.058044 433.969208,271.985291 434.005554,271.972656 
	C433.582550,272.400818 433.511261,273.008942 433.172241,273.820129 
	C432.999207,274.064056 432.989197,273.992035 433.025208,273.987000 
	C432.809540,274.186096 432.577423,274.410339 432.184021,274.816101 
	C427.164673,285.239716 420.394653,294.309235 414.134216,303.680389 
	C403.623901,319.413177 392.323761,334.606812 380.316071,349.199066 
	C373.070953,358.003693 365.255798,366.443542 357.927612,375.158264 
	C349.164124,385.579773 339.912811,395.539612 330.933838,405.743713 
	C321.179779,416.828735 310.338013,426.930878 300.288422,437.730133 
	C289.176788,449.670624 277.414368,460.929321 265.807251,472.777954 
	C264.876190,473.227722 264.487335,473.723755 264.241943,474.746643 
	C264.066833,475.033875 264.089081,475.065887 264.070068,475.070251 
	C263.757751,475.285614 263.473389,475.508057 262.999695,475.926758 
	C253.673233,484.540161 247.623016,484.666321 237.388092,476.406311 
	C225.271881,466.627960 212.837784,457.192230 201.278320,446.789246 
	C188.820404,435.577698 176.346008,424.363800 164.449112,412.501404 
	C153.982834,402.065491 143.406998,391.773071 133.726288,380.593018 
	C132.319275,378.968079 130.503769,377.659698 129.903015,375.040558 
	C129.380432,374.566742 128.937363,374.472626 128.219376,374.191650 
	C127.948311,373.986633 128.020065,373.984650 128.021088,374.020508 
	C127.506302,373.569305 127.547401,372.781952 126.762604,372.112366 
	C121.729919,368.401886 119.180183,363.022400 115.181686,358.439514 
	C114.811249,357.887756 114.595390,357.627136 114.163605,357.226532 
	C113.957260,357.078613 113.997070,357.114105 113.971024,357.119873 
	C113.638763,356.741821 113.246452,356.494507 112.815369,356.027802 
	C110.438118,353.140442 107.720016,350.846191 106.131973,347.213745 
	C105.108185,346.315155 104.833466,345.320984 104.170418,344.229340 
	C91.641983,328.978668 81.696060,312.314880 70.964233,296.181305 
	C60.379974,280.269623 51.897221,263.228668 43.682026,246.083923 
	C38.695534,235.677322 35.181282,224.565308 31.010986,213.392883 
	C31.447779,208.519318 29.606190,204.431839 28.042788,200.508011 
	C26.714916,197.175339 25.493084,194.014969 25.295225,190.200531 
	C24.737059,189.507034 24.458229,189.035645 24.115273,188.294739 
	C25.666843,183.554901 22.999784,179.553528 22.278866,175.441711 
	C20.232445,163.769791 19.606693,152.037094 18.935091,139.937897 
	C18.521305,138.982681 18.490705,138.312607 18.500618,137.314682 
	C18.497751,136.570160 18.532648,136.150299 18.608208,135.423798 
	C18.600372,134.906403 18.597378,134.699707 18.797432,134.258698 
	C18.784416,133.508133 18.568352,132.991898 18.418083,132.274902 
	C20.603369,130.281021 18.959433,127.849991 19.772219,125.441406 
	C20.003374,123.958389 20.010153,122.831322 20.048004,121.282654 
	C21.085766,119.842339 19.649477,118.511703 20.756058,117.210129 
	C21.038906,116.150383 21.077162,115.355026 21.132999,114.161880 
	C21.803228,112.741661 21.317131,111.564285 21.784893,110.213493 
	C21.973858,109.935997 22.005516,109.998482 21.973980,110.013725 
	C22.390278,109.612778 22.496761,109.051071 22.796436,108.280075 
	C31.417826,70.413879 58.679119,41.447899 99.587433,36.039074 
	C101.922157,34.935066 104.019341,35.779488 106.373016,35.329086 
	C107.663391,35.186192 108.597656,35.191006 109.998131,35.227024 
	C114.044449,35.828560 117.654312,35.295082 121.592766,35.773636 
	C143.302856,37.876804 161.677795,46.584007 178.492615,59.635406 
	C194.017822,71.685791 206.754166,86.260437 218.292160,101.879005 
	C225.766159,111.996292 232.185623,122.934410 236.381485,134.976547 
	C236.824692,136.248581 236.935486,138.487289 238.870651,138.176956 
	C240.516190,137.913071 241.281555,136.079620 241.762161,134.437714 
	C247.550934,114.661339 258.861786,98.027321 271.184448,81.864693 
	C279.306274,71.211945 288.545074,61.681644 299.202301,53.779854 
	C318.587433,39.406734 339.750153,28.617691 364.423920,25.041321 
	C366.882782,23.940414 369.105438,24.793451 371.579132,24.248432 
	C377.726074,24.090555 383.520813,24.138781 389.801697,24.188417 
	C392.980377,24.903072 395.735504,24.250818 398.795471,24.780384 
	C399.332428,25.015347 399.520294,25.034065 399.986816,25.103251 
	C401.277435,25.843811 402.430969,25.260672 403.717224,25.755211 
	C408.430420,27.319546 412.918030,28.641088 417.791138,30.039585 
	C418.877380,30.710947 419.780853,30.369905 420.807983,30.811014 
	C421.062317,30.990355 420.995117,31.010164 420.985840,30.976393 
	C421.129791,31.106958 421.283051,31.271294 421.677917,31.670593 
	C429.916016,36.137974 438.358643,39.693035 444.950470,46.146126 
	C458.893036,59.795216 467.793243,76.295959 472.764221,95.108444 
	C474.253601,100.744942 475.014099,106.443504 475.939758,112.569069 
	C476.677643,113.669312 476.457153,114.541397 476.412781,115.777908 
	C475.369812,120.734810 476.684174,125.178589 477.045990,130.048035 
	C477.403137,130.917389 477.508575,131.430954 477.478455,132.355804 
	C476.001434,135.987106 477.106842,139.302734 477.326843,142.932373 
	C477.506348,144.008408 477.517609,144.741486 477.213379,145.768005 
	C477.155273,147.167984 477.310822,148.272781 477.421814,149.648407 
	C475.526093,151.809418 476.986450,154.182877 476.225830,156.618622 
z"/>
<path fill="#141411" opacity="1.000000" stroke="none" 
	d="
M18.805462,139.418457 
	C21.813293,146.353241 20.338406,154.153305 21.596836,161.664688 
	C22.885000,169.353516 23.551085,177.151749 25.596975,184.702805 
	C25.994234,186.169006 26.310190,187.290161 24.281652,187.940369 
	C23.721727,186.313797 23.392307,184.602402 23.036922,182.519287 
	C22.252722,179.338913 21.440149,176.540314 21.200657,173.265549 
	C20.969580,172.937851 21.032156,172.990402 21.020941,173.029694 
	C19.464588,171.043365 21.070984,168.739487 20.205299,166.286850 
	C19.969131,165.940674 20.040470,165.987427 20.020840,166.025284 
	C18.670746,162.636597 20.271545,158.956024 19.009291,155.076431 
	C18.943609,153.984451 18.955858,153.332870 18.985855,152.355789 
	C17.900848,147.993698 18.755947,143.883072 18.805462,139.418457 
z"/>
<path fill="#141411" opacity="1.000000" stroke="none" 
	d="
M25.015205,190.338745 
	C28.203575,192.091476 27.321596,195.896729 28.578131,198.821976 
	C30.188631,202.571274 31.061117,206.643387 32.162403,210.601212 
	C32.411282,211.495636 33.535709,212.903732 31.186611,213.065643 
	C29.450150,208.312057 27.883961,203.608551 26.166733,198.592773 
	C24.611401,196.997223 24.676556,195.371597 24.954231,193.278732 
	C24.978441,192.139404 24.996479,191.419250 25.015205,190.338745 
z"/>
<path fill="#41413E" opacity="1.000000" stroke="none" 
	d="
M476.626221,133.532074 
	C476.833435,132.610229 476.838593,132.100311 476.824158,131.208282 
	C476.511993,128.671143 475.966003,126.537544 476.614075,124.027679 
	C479.307343,130.902496 477.977844,138.187241 477.295654,145.754150 
	C476.936371,145.266800 476.872986,144.470428 476.769470,143.276672 
	C476.514435,139.904709 475.925171,136.942932 476.626221,133.532074 
z"/>
<path fill="#141411" opacity="1.000000" stroke="none" 
	d="
M476.926758,123.398941 
	C476.927582,125.797157 476.882202,127.872223 476.820679,130.386749 
	C474.951263,126.287506 474.514221,121.621223 475.658142,116.442429 
	C477.262848,117.783974 476.152863,119.847923 476.634583,122.076797 
	C476.794769,122.649025 476.837616,122.862404 476.926758,123.398941 
z"/>
<path fill="#41413E" opacity="1.000000" stroke="none" 
	d="
M19.056755,138.624756 
	C19.057756,143.049500 19.046282,147.074997 19.019207,151.565399 
	C16.957819,146.301834 18.123075,140.475739 18.738207,134.349350 
	C19.024656,134.223877 19.048834,134.423416 19.099159,135.227066 
	C19.098297,136.629272 19.071289,137.427368 19.056755,138.624756 
z"/>
<path fill="#41413E" opacity="1.000000" stroke="none" 
	d="
M121.617355,35.755844 
	C118.358276,35.785027 114.773956,35.571651 110.826996,35.308250 
	C114.075615,35.257965 117.700562,34.676723 121.617355,35.755844 
z"/>
<path fill="#41413E" opacity="1.000000" stroke="none" 
	d="
M18.815571,154.983948 
	C20.466825,158.015732 19.903154,161.621948 20.033560,165.606445 
	C17.671879,162.715927 19.807690,158.827209 18.815571,154.983948 
z"/>
<path fill="#41413E" opacity="1.000000" stroke="none" 
	d="
M24.714367,193.087555 
	C25.955311,194.245712 25.976629,195.870575 26.053608,197.876511 
	C22.336027,197.611557 23.209093,195.523712 24.714367,193.087555 
z"/>
<path fill="#41413E" opacity="1.000000" stroke="none" 
	d="
M20.985649,173.361908 
	C22.576765,175.503525 22.913263,178.387726 23.040453,181.732269 
	C20.800138,179.730667 20.856672,176.768936 20.985649,173.361908 
z"/>
<path fill="#41413E" opacity="1.000000" stroke="none" 
	d="
M476.785645,122.037125 
	C476.451477,120.563080 476.150970,118.690514 475.811890,116.439957 
	C475.827881,115.291695 475.882507,114.521416 475.968506,113.366333 
	C477.920715,115.711243 476.792206,118.729614 476.785645,122.037125 
z"/>
<path fill="#41413E" opacity="1.000000" stroke="none" 
	d="
M398.861877,24.693361 
	C396.430054,24.813183 393.715485,24.629734 390.644409,24.318058 
	C393.056702,24.046976 395.833832,23.560070 398.861877,24.693361 
z"/>
<path fill="#41413E" opacity="1.000000" stroke="none" 
	d="
M19.980621,166.326080 
	C21.185301,167.891418 21.102709,170.069260 21.040051,172.653656 
	C17.851553,171.401031 20.852800,168.747177 19.980621,166.326080 
z"/>
<path fill="#41413E" opacity="1.000000" stroke="none" 
	d="
M371.518066,24.023190 
	C369.959625,25.138805 367.783417,24.923616 365.239105,25.009377 
	C366.702576,23.315229 368.988800,24.197721 371.518066,24.023190 
z"/>
<path fill="#41413E" opacity="1.000000" stroke="none" 
	d="
M476.291046,156.695694 
	C476.031342,154.813507 475.740631,152.603287 477.196167,150.281616 
	C477.112122,152.085907 476.846924,154.252563 476.291046,156.695694 
z"/>
<path fill="#41413E" opacity="1.000000" stroke="none" 
	d="
M19.697544,125.347252 
	C19.880615,127.220551 20.118786,129.424728 18.632095,131.697754 
	C18.788750,129.919098 19.093624,127.764076 19.697544,125.347252 
z"/>
<path fill="#41413E" opacity="1.000000" stroke="none" 
	d="
M106.335754,35.137917 
	C104.837173,36.108368 102.806755,36.049179 100.385437,36.008385 
	C101.757301,34.269840 103.919090,35.137306 106.335754,35.137917 
z"/>
<path fill="#41413E" opacity="1.000000" stroke="none" 
	d="
M20.675577,117.000443 
	C20.794600,118.050522 20.588545,119.155289 20.230785,120.560562 
	C20.450918,119.612480 17.692673,118.140678 20.675577,117.000443 
z"/>
<path fill="#41413E" opacity="1.000000" stroke="none" 
	d="
M103.977509,344.350647 
	C104.571770,344.783600 105.161255,345.568970 105.870216,346.629333 
	C104.475410,346.942047 103.907990,346.112213 103.977509,344.350647 
z"/>
<path fill="#41413E" opacity="1.000000" stroke="none" 
	d="
M112.600853,355.786255 
	C113.149323,355.964294 113.436111,356.256470 113.833939,356.837128 
	C113.013939,357.414368 111.946182,358.335052 111.199211,357.136841 
	C110.826698,356.539246 111.663292,356.065857 112.600853,355.786255 
z"/>
<path fill="#41413E" opacity="1.000000" stroke="none" 
	d="
M474.312073,170.804306 
	C474.203766,169.560822 474.407623,168.091293 474.807861,166.306763 
	C474.877594,167.520599 474.750916,169.049438 474.312073,170.804306 
z"/>
<path fill="#41413E" opacity="1.000000" stroke="none" 
	d="
M403.911102,25.718140 
	C402.905823,25.809029 401.868866,25.620050 400.548676,25.292395 
	C401.457397,25.410200 402.790100,23.878391 403.911102,25.718140 
z"/>
<path fill="#41413E" opacity="1.000000" stroke="none" 
	d="
M475.289062,162.717285 
	C475.190216,161.591248 475.378082,160.253632 475.691681,158.607101 
	C475.925293,159.711502 476.236267,161.136505 475.289062,162.717285 
z"/>
<path fill="#41413E" opacity="1.000000" stroke="none" 
	d="
M21.694788,110.141838 
	C21.796377,111.015396 21.618898,112.094795 21.296001,113.469147 
	C21.238964,112.625290 21.327341,111.486481 21.694788,110.141838 
z"/>
<path fill="#41413E" opacity="1.000000" stroke="none" 
	d="
M420.857452,30.743450 
	C420.269684,30.814304 419.477051,30.638250 418.430542,30.289368 
	C419.001984,30.243206 419.827271,30.369877 420.857452,30.743450 
z"/>
<path fill="#41413E" opacity="1.000000" stroke="none" 
	d="
M433.241577,273.876312 
	C433.223663,273.518188 433.448120,272.972351 433.857239,272.193237 
	C433.855927,272.536194 433.669922,273.112366 433.241577,273.876312 
z"/>
<path fill="#41413E" opacity="1.000000" stroke="none" 
	d="
M434.219238,271.878418 
	C434.187775,271.539001 434.381104,271.019928 434.759033,270.292786 
	C434.777100,270.622742 434.610565,271.160767 434.219238,271.878418 
z"/>
<path fill="#41413E" opacity="1.000000" stroke="none" 
	d="
M128.140930,374.161133 
	C128.416245,374.162079 128.884186,374.337524 129.585861,374.596069 
	C129.324249,374.564667 128.828903,374.450165 128.140930,374.161133 
z"/>
<path fill="#41413E" opacity="1.000000" stroke="none" 
	d="
M22.729074,108.209427 
	C22.768404,108.584465 22.543411,109.096542 22.130432,109.818794 
	C22.116547,109.468140 22.290648,108.907303 22.729074,108.209427 
z"/>
<path fill="#41413E" opacity="1.000000" stroke="none" 
	d="
M126.657227,372.219543 
	C126.880081,372.455627 127.298126,372.964355 127.869141,373.764771 
	C127.632225,373.535004 127.242325,373.013611 126.657227,372.219543 
z"/>
<path fill="#41413E" opacity="1.000000" stroke="none" 
	d="
M264.350403,474.864838 
	C264.412384,474.499542 264.757935,473.965240 265.328522,473.189819 
	C265.247009,473.531097 264.940491,474.113434 264.350403,474.864838 
z"/>
<path fill="#41413E" opacity="1.000000" stroke="none" 
	d="
M421.845276,31.677689 
	C421.635986,31.774897 421.403320,31.582584 421.099060,31.135620 
	C421.305756,31.010824 421.570557,31.179890 421.845276,31.677689 
z"/>
<path fill="#41413E" opacity="1.000000" stroke="none" 
	d="
M114.007004,357.351501 
	C114.221848,357.289703 114.486427,357.500763 114.884262,357.934082 
	C114.697250,357.979034 114.376991,357.801727 114.007004,357.351501 
z"/>
<path fill="#41413E" opacity="1.000000" stroke="none" 
	d="
M263.101685,476.067413 
	C263.018768,475.787750 263.237579,475.465790 263.753723,475.109192 
	C263.835205,475.391418 263.619324,475.708282 263.101685,476.067413 
z"/>
<path fill="#41413E" opacity="1.000000" stroke="none" 
	d="
M432.253662,274.905975 
	C432.151733,274.675812 432.360626,274.424347 432.845520,274.102509 
	C432.875488,274.266144 432.689819,274.550323 432.253662,274.905975 
z"/>
<path fill="#000000" opacity="1.000000" stroke="none" 
	d="
M442.323730,199.733215 
	C442.150024,200.454437 442.173645,200.917313 442.188812,201.727829 
	C442.075623,202.633987 441.884613,203.153641 441.353943,203.825562 
	C418.101807,260.238983 383.118591,308.791107 344.213470,355.187805 
	C343.911530,355.860107 343.706573,356.241394 343.186737,356.808044 
	C342.949829,357.035278 343.031708,357.019867 343.024017,356.978943 
	C342.792633,357.194977 342.559875,357.443390 342.129944,357.856262 
	C341.943298,358.030609 342.027740,358.036469 342.030701,357.994263 
	C341.503540,358.429565 341.546722,359.221191 340.763336,359.892029 
	C334.104340,368.135406 326.096191,374.797485 320.233521,383.733582 
	C320.038605,384.610016 319.877502,385.148804 319.277313,385.815521 
	C317.882843,387.218018 316.665344,388.392151 315.225067,389.792969 
	C314.836823,390.177979 314.671356,390.336365 314.274597,390.748871 
	C313.182068,391.871033 312.320801,392.739105 311.232178,393.812073 
	C310.764191,394.220978 310.532867,394.434937 310.138123,394.820312 
	C305.482544,395.464142 304.084045,399.758606 301.702301,402.392670 
	C285.897583,419.871490 268.882721,436.147766 252.223541,453.199005 
	C251.746490,454.276825 251.028397,454.506744 249.928741,454.843994 
	C239.752823,447.653168 230.231506,439.910706 221.367065,431.445068 
	C214.746765,425.122620 207.430023,419.696442 200.477219,413.807587 
	C196.303162,410.272339 192.458572,406.289459 188.751907,402.328339 
	C182.075592,395.193726 174.890076,388.582458 168.118332,381.552582 
	C154.301254,367.208740 140.664124,352.632507 128.582077,336.904510 
	C116.170998,320.748108 104.312553,304.085022 93.402260,286.767609 
	C84.003304,271.849121 75.271698,256.649323 67.786591,240.706650 
	C67.228958,239.518967 66.289062,238.510773 65.266754,237.191971 
	C61.414997,231.593643 59.910591,225.267044 57.082836,219.536697 
	C56.021526,217.385986 55.262917,215.003372 54.747604,212.319778 
	C50.605587,199.871765 47.920029,187.325806 45.014099,174.435364 
	C44.351254,173.565659 43.905296,172.947144 43.314995,172.084686 
	C43.155319,171.124893 43.131474,170.416489 43.084568,169.354446 
	C42.902706,168.832733 42.743904,168.664658 42.628586,168.157593 
	C43.152931,166.101303 42.875439,164.274475 43.215141,162.281616 
	C42.913795,161.507584 42.827431,161.019730 42.678562,160.165588 
	C41.477112,156.183029 43.098797,152.526520 42.232521,148.538055 
	C42.594856,144.326599 42.667568,140.467804 42.142387,136.285980 
	C43.077747,134.004288 42.199238,131.863098 42.724144,129.481720 
	C43.582714,124.408569 44.257019,119.682594 44.966270,114.542618 
	C45.760773,112.144211 46.444618,110.141106 46.645126,107.654388 
	C51.225002,96.456665 56.061600,85.820267 64.861244,77.163795 
	C65.254890,76.757782 65.411034,76.595276 65.810493,76.198074 
	C66.053802,75.963379 65.968124,75.973488 65.973167,76.016327 
	C66.409241,75.602882 66.487083,74.996986 66.859802,74.206604 
	C70.307724,71.774933 73.657295,69.697006 76.795403,67.337814 
	C81.801743,63.574097 87.727722,62.092098 93.851120,60.035889 
	C95.193169,59.066532 96.446960,60.138535 97.721306,59.211113 
	C97.989349,59.001041 98.023979,59.031494 98.025482,59.008484 
	C99.384575,58.109081 100.882614,58.622028 102.691345,58.792496 
	C103.061035,59.033615 102.883316,59.073277 102.814423,59.132805 
	C103.116539,59.559647 103.488411,59.926075 103.996155,60.655979 
	C104.027184,61.774853 103.923569,62.529442 103.177200,63.419834 
	C95.898918,69.612244 90.006027,76.625099 83.798027,83.361740 
	C73.988472,94.006607 65.636780,105.915131 55.199673,116.004356 
	C53.418816,117.725861 51.727341,119.623497 51.388176,122.399185 
	C51.588329,122.593788 51.926731,122.535309 52.114273,122.447151 
	C52.585693,122.184837 52.859112,121.995537 53.351921,121.582390 
	C65.961769,109.299622 76.845169,95.865402 88.349144,82.997643 
	C92.433250,78.429359 97.317459,74.549568 100.664948,68.903633 
	C101.048332,68.258995 101.280060,67.906609 101.717468,67.333542 
	C102.018379,66.942932 102.137413,66.788834 102.424858,66.402290 
	C102.698463,66.012947 102.803658,65.856064 103.055466,65.459885 
	C103.480286,64.734535 103.733536,64.236328 104.023849,63.443695 
	C104.315636,62.635235 104.376953,62.051468 104.650665,61.223755 
	C105.237061,60.215199 105.007881,59.170536 105.947144,58.279640 
	C107.582542,58.285046 108.968719,58.530537 110.694122,58.877060 
	C114.289749,57.956566 117.628426,58.729092 121.345566,58.690331 
	C122.987915,59.370247 124.166382,60.119392 125.436386,60.338909 
	C127.017242,60.612148 129.217743,59.916946 129.806396,61.747410 
	C130.283859,63.232124 128.179764,64.016502 127.223053,65.094597 
	C123.940521,68.793617 120.571739,72.416100 117.041565,76.321770 
	C116.198372,78.018250 116.527809,80.080490 113.997162,80.671310 
	C111.781265,82.347198 110.226311,84.159195 109.079132,86.683701 
	C108.711205,88.693275 108.384460,90.482178 107.152405,91.667519 
	C102.111534,96.517281 98.254051,102.415817 93.334854,107.331711 
	C79.332413,121.324760 66.655777,136.439423 54.901043,152.641968 
	C55.150913,153.138809 55.501652,152.986160 55.699921,152.862930 
	C68.428604,140.791443 79.213707,127.234161 91.055321,114.655464 
	C96.293205,109.091545 101.279556,103.321388 106.403976,97.666801 
	C109.691498,94.039154 114.034935,91.564133 118.015259,88.205231 
	C125.549980,82.376381 129.845413,74.011597 136.827698,67.656128 
	C137.663162,66.147316 138.069366,64.747162 139.538147,63.851658 
	C158.531036,72.388573 173.751251,85.007507 187.106094,100.528320 
	C197.243179,112.309479 205.163467,125.476791 213.703629,138.257568 
	C217.810730,144.404068 220.390991,151.570801 223.807190,158.591995 
	C223.919235,160.394409 224.127274,161.774384 225.791840,162.842712 
	C227.242249,168.147400 229.532410,172.555145 234.174362,175.807236 
	C234.855438,176.083694 235.225128,176.280685 235.780624,176.772339 
	C236.003128,176.998138 236.253571,177.028488 236.377380,177.004349 
	C236.905014,177.113846 237.271805,177.313873 237.812469,177.821518 
	C238.029526,178.051849 237.999252,177.990433 237.969604,178.007538 
	C238.743286,178.689560 239.663040,178.502823 240.861603,178.193634 
	C241.332031,177.982513 241.514252,177.962448 241.966965,177.892929 
	C242.936005,177.308060 243.814316,177.630234 244.813660,177.177841 
	C245.059906,177.000641 244.989792,176.982590 244.980759,177.017639 
	C245.181839,176.813797 245.404938,176.587738 245.794174,176.191956 
	C251.312653,174.598663 252.095810,169.549255 253.183762,165.553268 
	C256.654175,152.806793 261.464905,140.602127 267.462738,128.928955 
	C273.987549,116.230225 281.704041,104.291008 291.047058,93.314316 
	C299.093628,83.860794 307.815765,75.231819 317.971771,68.308884 
	C331.592865,59.023979 346.042023,51.187191 362.694061,48.527428 
	C364.653107,48.214523 366.551117,47.519711 368.880493,46.909798 
	C370.599182,46.177612 372.020294,46.682098 373.645447,46.227646 
	C378.052948,47.233730 382.181458,46.142494 386.724274,45.993404 
	C389.817383,47.090778 392.632050,46.184364 395.708527,46.788918 
	C396.056000,47.021095 395.999756,46.946125 395.962280,46.974251 
	C397.220947,47.946815 398.719421,47.292564 400.428833,47.687447 
	C411.284729,50.894283 421.175842,55.182117 429.697083,62.842251 
	C430.213562,63.245598 430.448181,63.477924 430.871094,63.872166 
	C431.045105,64.048553 431.040070,63.952812 430.992188,63.955315 
	C431.191956,64.195419 431.436737,64.435905 431.857788,64.864136 
	C432.036957,65.048904 432.049438,64.964882 432.007446,64.958633 
	C432.280121,65.255951 432.563568,65.586304 432.928955,66.250549 
	C440.501373,76.566376 445.338135,87.884064 449.706299,99.846581 
	C450.426056,100.263863 450.759460,100.583931 450.955688,101.433853 
	C451.392487,103.356316 451.151947,105.018883 451.787292,106.889526 
	C451.915985,107.457649 452.005402,107.677078 452.167267,108.239548 
	C452.802063,110.093597 452.086731,111.762627 452.886780,113.618042 
	C452.957733,114.232376 452.959198,114.481506 452.878632,115.094597 
	C452.223053,117.401924 452.575562,119.383476 452.776123,121.645813 
	C453.029022,122.171738 453.059479,122.401436 453.146759,122.974007 
	C453.890198,129.494415 453.206482,135.692398 453.347137,142.278168 
	C453.133514,144.435349 453.053192,146.190445 452.985474,148.383453 
	C451.956024,150.823746 452.769775,152.982971 452.307922,155.409851 
	C452.101532,156.587997 452.058960,157.404541 452.007690,158.629974 
	C450.989197,160.399139 451.779358,161.995087 451.198975,163.747314 
	C450.975372,164.053772 451.044800,164.001404 451.018616,163.966675 
	C450.052521,165.243698 450.712219,166.755859 450.297852,168.477051 
	C449.714996,174.029099 447.166412,178.835083 447.083252,184.538635 
	C447.818054,189.632156 444.784973,193.291550 443.472717,197.767502 
	C443.236145,198.226868 443.195190,198.391418 443.080627,198.799438 
	C442.845062,199.186905 442.683075,199.330887 442.323730,199.733215 
z"/>
<path fill="#242522" opacity="1.000000" stroke="none" 
	d="
M118.054565,88.118576 
	C114.541588,94.422195 108.741295,99.006874 104.013062,104.525391 
	C92.837814,117.568481 81.070984,130.102997 69.654129,142.941650 
	C65.475723,147.640427 60.206097,151.288971 56.419540,156.791168 
	C55.616398,157.431549 55.310852,158.095215 54.440033,158.691574 
	C53.585609,158.777634 53.032536,158.687042 52.253693,158.425537 
	C51.828953,157.937149 51.606064,157.637466 51.158375,157.159683 
	C50.957520,156.963776 51.032398,156.995529 51.016525,157.032974 
	C50.581837,156.693512 50.306175,156.248184 50.233311,155.406006 
	C49.525524,152.522110 51.141041,150.794357 52.664845,149.076340 
	C64.855392,135.332001 75.869896,120.547615 88.961975,107.609108 
	C95.651100,100.998451 100.785141,92.931755 108.677063,87.085579 
	C110.165443,89.545425 111.460182,91.390160 114.493637,88.929802 
	C115.281044,88.291138 116.648010,88.367027 118.054565,88.118576 
z"/>
<path fill="#222320" opacity="1.000000" stroke="none" 
	d="
M107.232880,64.486755 
	C106.703896,65.466515 106.399483,66.063057 105.944283,66.959503 
	C105.597046,67.659737 105.465744,68.080894 105.198303,68.791534 
	C105.006210,69.063126 104.999519,68.999756 105.031128,69.003784 
	C104.695534,69.310547 104.274872,69.482338 103.461975,69.608948 
	C100.337006,76.515533 94.133438,80.542839 89.589607,85.899055 
	C78.702225,98.732956 67.172112,111.021599 55.680168,123.753265 
	C54.990173,124.174515 54.555435,124.430565 53.804218,124.890472 
	C51.908817,127.975609 50.369247,130.925217 46.019905,128.427902 
	C46.309261,126.989670 46.731960,125.797249 46.204628,124.243515 
	C50.584080,116.049019 57.833355,110.305840 63.345280,103.233559 
	C69.966347,94.738144 77.653648,87.238289 84.224258,78.770866 
	C88.908432,72.734451 94.705589,67.807327 100.164726,62.157936 
	C101.032387,61.770676 101.506104,61.402836 101.710503,60.424911 
	C102.073769,59.948147 102.284607,59.745285 102.623062,59.370056 
	C103.661232,58.865051 104.576927,58.537762 105.844490,58.125011 
	C106.458221,58.724709 106.720085,59.409863 106.997238,60.371773 
	C107.724876,61.727566 107.457550,62.932762 107.232880,64.486755 
z"/>
<path fill="#141411" opacity="1.000000" stroke="none" 
	d="
M54.765923,212.183075 
	C58.219936,220.075623 61.510529,228.167862 64.903870,236.612457 
	C63.634739,237.598770 63.218510,236.475311 62.870697,235.641159 
	C59.969482,228.683289 57.099926,221.711670 54.317814,214.705673 
	C54.065144,214.069382 54.491489,213.163452 54.765923,212.183075 
z"/>
<path fill="#242522" opacity="1.000000" stroke="none" 
	d="
M113.784866,81.056961 
	C114.152985,79.257500 115.073586,78.013626 116.576614,76.780914 
	C117.995041,78.642899 120.488029,78.572662 122.172302,79.818062 
	C116.226006,86.369431 116.226006,86.369431 113.784866,81.056961 
z"/>
<path fill="#141411" opacity="1.000000" stroke="none" 
	d="
M450.317871,102.659332 
	C450.102875,101.840752 450.045959,101.359200 449.949463,100.516800 
	C454.715759,104.360023 453.910645,109.833168 453.181580,115.621506 
	C452.822968,115.888268 452.608063,115.790115 452.216858,115.384483 
	C452.040619,115.077011 452.005676,114.690155 452.008850,114.495956 
	C450.999542,112.492294 451.761627,110.503914 451.206665,108.283134 
	C450.973633,107.941444 451.036011,107.993149 451.021912,108.031128 
	C449.983704,106.466988 450.745758,104.677582 450.317871,102.659332 
z"/>
<path fill="#141411" opacity="1.000000" stroke="none" 
	d="
M443.507996,197.832596 
	C444.462708,193.880051 445.648376,189.697800 446.956360,185.230652 
	C449.224213,190.024689 445.707306,193.609482 443.507996,197.832596 
z"/>
<path fill="#41413E" opacity="1.000000" stroke="none" 
	d="
M453.320679,142.310303 
	C453.199951,136.512726 453.186096,130.345200 453.187927,123.747284 
	C454.152527,129.514191 454.025024,135.724457 453.320679,142.310303 
z"/>
<path fill="#141411" opacity="1.000000" stroke="none" 
	d="
M476.641113,133.364227 
	C476.818634,136.079132 476.809021,139.038116 476.764343,142.438171 
	C475.227539,139.830826 475.080811,136.742126 476.641113,133.364227 
z"/>
<path fill="#41413E" opacity="1.000000" stroke="none" 
	d="
M42.013367,148.608856 
	C43.969658,151.641983 42.735783,155.321823 42.666733,159.360352 
	C42.616058,159.799286 42.536598,159.898346 42.541435,159.961655 
	C40.916023,159.401764 41.686279,158.002609 41.732613,156.490997 
	C41.958858,153.735611 41.988903,151.390121 42.013367,148.608856 
z"/>
<path fill="#41413E" opacity="1.000000" stroke="none" 
	d="
M121.404984,58.746536 
	C118.491219,58.921478 115.213600,58.986835 111.484673,59.015144 
	C114.311752,57.176735 117.679756,58.003990 121.404984,58.746536 
z"/>
<path fill="#41413E" opacity="1.000000" stroke="none" 
	d="
M225.925018,162.753845 
	C223.363876,163.111282 222.648529,161.816376 223.723816,159.176254 
	C224.583557,160.081528 225.215424,161.254578 225.925018,162.753845 
z"/>
<path fill="#41413E" opacity="1.000000" stroke="none" 
	d="
M395.674927,46.904480 
	C393.268707,46.873501 390.481384,46.725910 387.415100,46.292084 
	C389.870453,46.109135 392.643616,45.807289 395.674927,46.904480 
z"/>
<path fill="#41413E" opacity="1.000000" stroke="none" 
	d="
M46.607189,107.614281 
	C47.369549,109.633827 46.943077,111.765228 45.319077,113.934921 
	C45.481945,112.054802 45.962681,109.980995 46.607189,107.614281 
z"/>
<path fill="#41413E" opacity="1.000000" stroke="none" 
	d="
M452.281494,155.421814 
	C452.080414,153.638321 451.657776,151.488892 452.715942,149.107651 
	C452.805023,150.904968 452.611969,152.988571 452.281494,155.421814 
z"/>
<path fill="#41413E" opacity="1.000000" stroke="none" 
	d="
M452.017639,115.481895 
	C452.316498,115.212898 452.554657,115.397484 452.896484,115.808594 
	C453.025970,117.688377 453.014008,119.390350 453.000305,121.517174 
	C451.294983,120.150581 452.150787,117.934799 452.017639,115.481895 
z"/>
<path fill="#41413E" opacity="1.000000" stroke="none" 
	d="
M139.685959,63.842400 
	C139.108978,64.958000 138.328537,65.987015 137.278778,67.207413 
	C137.436157,65.914520 136.942520,63.805508 139.685959,63.842400 
z"/>
<path fill="#41413E" opacity="1.000000" stroke="none" 
	d="
M42.739182,129.470337 
	C42.983765,131.232147 43.331787,133.347061 42.256111,135.680847 
	C42.190380,133.917938 42.380165,131.862045 42.739182,129.470337 
z"/>
<path fill="#41413E" opacity="1.000000" stroke="none" 
	d="
M135.748535,362.002747 
	C135.723251,361.768433 135.783737,361.530945 135.844238,361.293457 
	C135.840942,361.528809 135.837631,361.764191 135.748535,362.002747 
z"/>
<path fill="#141411" opacity="1.000000" stroke="none" 
	d="
M43.290741,167.038239 
	C43.106377,167.653336 43.103699,167.922943 43.081261,168.596680 
	C42.147488,167.291504 42.009232,165.521088 42.757732,163.366394 
	C44.068623,164.095795 43.277496,165.475296 43.290741,167.038239 
z"/>
<path fill="#41413E" opacity="1.000000" stroke="none" 
	d="
M43.313965,167.143890 
	C43.053070,166.180374 42.997086,164.977005 42.906792,163.408295 
	C42.892380,162.868195 42.912277,162.693451 42.966171,162.257065 
	C44.671818,163.473267 44.006115,165.198090 43.313965,167.143890 
z"/>
<path fill="#41413E" opacity="1.000000" stroke="none" 
	d="
M102.751160,58.918274 
	C101.660355,59.001877 100.259666,58.970135 98.442978,58.961937 
	C99.481392,58.512913 100.934456,58.007698 102.751160,58.918274 
z"/>
<path fill="#41413E" opacity="1.000000" stroke="none" 
	d="
M97.664276,59.047188 
	C97.311806,60.624073 96.176277,60.756557 94.482002,59.931519 
	C95.245705,59.611980 96.292458,59.352661 97.664276,59.047188 
z"/>
<path fill="#41413E" opacity="1.000000" stroke="none" 
	d="
M400.432434,47.708290 
	C399.302612,47.749603 397.852509,47.655754 396.163574,47.282143 
	C397.320557,47.192631 398.716309,47.382885 400.432434,47.708290 
z"/>
<path fill="#141411" opacity="1.000000" stroke="none" 
	d="
M43.204414,172.066559 
	C43.672836,172.408081 44.166519,172.982880 44.805801,173.803375 
	C43.965340,173.871674 43.354832,173.324600 43.204414,172.066559 
z"/>
<path fill="#41413E" opacity="1.000000" stroke="none" 
	d="
M373.575500,46.037178 
	C372.878754,47.497257 371.351074,46.829800 369.637848,46.861652 
	C370.599945,46.565105 371.916321,46.312550 373.575500,46.037178 
z"/>
<path fill="#41413E" opacity="1.000000" stroke="none" 
	d="
M450.292419,168.484894 
	C449.981476,167.320023 449.758209,165.835388 450.707245,164.170624 
	C450.812500,165.344589 450.632568,166.757263 450.292419,168.484894 
z"/>
<path fill="#41413E" opacity="1.000000" stroke="none" 
	d="
M451.100281,163.708633 
	C451.108459,162.530228 451.241516,161.006668 451.686768,159.260986 
	C451.740997,160.480392 451.483093,161.921951 451.100281,163.708633 
z"/>
<path fill="#141411" opacity="1.000000" stroke="none" 
	d="
M441.350861,203.934448 
	C441.423187,203.552277 441.638214,203.039368 442.016785,202.300934 
	C441.951416,202.651535 441.722473,203.227615 441.350861,203.934448 
z"/>
<path fill="#141411" opacity="1.000000" stroke="none" 
	d="
M319.252197,385.915771 
	C319.319031,385.526733 319.537720,385.009613 319.906250,384.254333 
	C319.838776,384.606720 319.621429,385.197205 319.252197,385.915771 
z"/>
<path fill="#141411" opacity="1.000000" stroke="none" 
	d="
M41.840950,156.366104 
	C42.099911,157.130875 42.271004,158.180618 42.494186,159.627670 
	C41.831997,159.006104 41.339256,157.935165 41.840950,156.366104 
z"/>
<path fill="#41413E" opacity="1.000000" stroke="none" 
	d="
M240.748505,177.969604 
	C240.451981,179.394669 239.443863,179.092331 238.162125,178.266846 
	C238.742371,177.995300 239.544785,177.965958 240.748505,177.969604 
z"/>
<path fill="#41413E" opacity="1.000000" stroke="none" 
	d="
M244.765839,177.039261 
	C244.514786,177.774948 243.691345,177.827667 242.546936,177.847015 
	C242.982239,177.588272 243.727005,177.333069 244.765839,177.039261 
z"/>
<path fill="#41413E" opacity="1.000000" stroke="none" 
	d="
M249.911346,454.843536 
	C250.196106,454.610748 250.812271,454.222900 251.742310,453.646179 
	C251.451706,453.867706 250.847229,454.278076 249.911346,454.843536 
z"/>
<path fill="#41413E" opacity="1.000000" stroke="none" 
	d="
M66.922195,74.241913 
	C66.832954,74.530182 66.612869,75.081314 66.185493,75.845802 
	C66.249260,75.541039 66.520302,75.022903 66.922195,74.241913 
z"/>
<path fill="#41413E" opacity="1.000000" stroke="none" 
	d="
M340.617065,359.766663 
	C340.836334,359.517365 341.208832,358.974731 341.807495,358.192078 
	C341.612518,358.459137 341.191406,358.966278 340.617065,359.766663 
z"/>
<path fill="#141411" opacity="1.000000" stroke="none" 
	d="
M310.143433,394.825836 
	C310.160675,394.730835 310.380157,394.503357 310.814362,394.158173 
	C310.782715,394.240692 310.554932,394.458313 310.143433,394.825836 
z"/>
<path fill="#41413E" opacity="1.000000" stroke="none" 
	d="
M343.163452,356.792664 
	C343.166748,356.664398 343.383698,356.293488 343.819580,355.679749 
	C343.818054,355.807953 343.597595,356.179016 343.163452,356.792664 
z"/>
<path fill="#141411" opacity="1.000000" stroke="none" 
	d="
M314.209656,390.845642 
	C314.226044,390.756287 314.429443,390.528046 314.827911,390.168945 
	C314.802582,390.251007 314.593811,390.473877 314.209656,390.845642 
z"/>
<path fill="#41413E" opacity="1.000000" stroke="none" 
	d="
M342.156708,357.884583 
	C342.139343,357.740723 342.335358,357.450836 342.773865,357.049500 
	C342.800903,357.204834 342.585480,357.471680 342.156708,357.884583 
z"/>
<path fill="#41413E" opacity="1.000000" stroke="none" 
	d="
M237.815521,177.821823 
	C237.666138,177.848648 237.302750,177.645447 236.720276,177.211243 
	C236.867966,177.184082 237.234741,177.387939 237.815521,177.821823 
z"/>
<path fill="#41413E" opacity="1.000000" stroke="none" 
	d="
M245.761200,176.160019 
	C245.883347,176.355377 245.706940,176.628845 245.194931,176.941254 
	C245.142990,176.781082 245.344101,176.533722 245.761200,176.160019 
z"/>
<path fill="#41413E" opacity="1.000000" stroke="none" 
	d="
M235.749512,176.816681 
	C235.649597,176.780899 235.296051,176.563660 234.695801,176.151001 
	C234.798004,176.182129 235.146957,176.408676 235.749512,176.816681 
z"/>
<path fill="#141411" opacity="1.000000" stroke="none" 
	d="
M19.119324,135.754272 
	C19.125307,135.831161 19.129288,135.523041 19.145195,135.371262 
	C19.161100,135.219482 19.113340,135.677368 19.119324,135.754272 
z"/>
<path fill="#41413E" opacity="1.000000" stroke="none" 
	d="
M431.865234,64.856911 
	C431.759338,64.838478 431.481720,64.628067 431.074219,64.187729 
	C431.194061,64.193520 431.443817,64.429222 431.865234,64.856911 
z"/>
<path fill="#41413E" opacity="1.000000" stroke="none" 
	d="
M432.845032,66.302032 
	C432.775879,66.217499 432.509552,65.877426 432.104309,65.244858 
	C432.192902,65.317078 432.420410,65.681786 432.845032,66.302032 
z"/>
<path fill="#41413E" opacity="1.000000" stroke="none" 
	d="
M430.865204,63.878265 
	C430.786652,63.838303 430.528229,63.628044 430.131531,63.208290 
	C430.219818,63.239223 430.450500,63.475613 430.865204,63.878265 
z"/>
<path fill="#41413E" opacity="1.000000" stroke="none" 
	d="
M65.878784,76.107132 
	C65.947128,76.266068 65.770630,76.520264 65.311523,76.823135 
	C65.265190,76.665321 65.466866,76.442184 65.878784,76.107132 
z"/>
<path fill="#141411" opacity="1.000000" stroke="none" 
	d="
M442.275940,199.836456 
	C442.287384,199.750610 442.472229,199.529617 442.843964,199.185730 
	C442.817719,199.259888 442.623871,199.472702 442.275940,199.836456 
z"/>
<path fill="#242422" opacity="1.000000" stroke="none" 
	d="
M310.833466,172.026917 
	C320.944519,160.341080 332.272186,150.376785 343.624054,140.421875 
	C351.611542,133.417343 359.103607,125.824501 367.319305,119.108978 
	C380.138580,108.630501 391.674744,96.634117 405.319153,87.143372 
	C407.843079,85.387779 410.362457,85.962868 412.132446,87.777252 
	C413.907257,89.596596 412.725159,91.634415 411.158356,93.466568 
	C404.409149,101.358917 395.760315,107.138580 388.256989,114.202148 
	C379.814636,122.149704 370.531860,129.196777 361.913025,136.966568 
	C351.181274,146.641129 340.817474,156.722412 330.183197,166.506790 
	C308.393005,186.555450 288.049927,208.067719 266.935394,228.798889 
	C264.571777,231.119598 261.917114,233.145676 259.377258,235.284454 
	C257.656006,236.733902 255.578156,237.205368 253.933899,235.631912 
	C252.009598,233.790512 252.878922,231.682236 254.488098,229.951508 
	C264.183563,219.523392 273.145477,208.445450 283.670990,198.744553 
	C291.955475,191.109085 299.423889,182.588150 307.499817,174.249359 
	C308.060669,173.832703 308.361542,173.607437 308.844360,173.159271 
	C309.043701,172.959427 309.016876,173.042801 308.975189,173.029419 
	C309.407379,172.567566 310.064148,172.523300 310.833466,172.026917 
z"/>
<path fill="#242422" opacity="1.000000" stroke="none" 
	d="
M399.842102,137.171448 
	C406.094727,131.951233 412.096954,126.807304 418.305420,121.925636 
	C420.578766,120.138115 423.491302,118.916534 425.747833,122.051773 
	C427.956696,125.120712 425.867188,127.402023 423.697601,129.339722 
	C414.037689,137.967163 404.315399,146.524734 394.626526,155.119812 
	C385.431458,163.276855 376.249847,171.449097 366.809448,179.786926 
	C366.136322,180.088913 365.757233,180.294556 365.191040,180.810059 
	C364.962860,181.044113 364.976990,180.963440 365.017334,180.970490 
	C364.768097,181.227417 364.506042,181.503433 364.132874,182.055954 
	C363.904358,182.512344 363.770905,182.684586 363.451904,182.906693 
	C362.989380,183.156433 362.686951,183.350540 362.219666,183.773270 
	C348.444366,196.584457 334.768494,209.103546 321.599152,222.168518 
	C308.565033,235.099350 295.368622,247.868393 282.117249,260.576843 
	C279.513702,263.073730 276.337280,264.974182 273.418823,267.141296 
	C272.130096,268.098236 270.842499,267.868286 269.828918,266.803558 
	C268.795898,265.718445 267.827484,264.389587 268.572968,262.794098 
	C269.126099,261.610260 269.882111,260.440887 270.803986,259.522156 
	C279.274811,251.080307 287.801636,242.694626 296.615967,234.163544 
	C297.395660,233.604370 297.491638,233.000458 297.835144,232.186523 
	C298.015350,231.945724 298.030792,232.021210 297.993042,232.028946 
	C298.238556,231.773773 298.498749,231.489777 298.876465,230.931686 
	C311.331390,217.933044 324.221466,205.783920 337.223907,193.749359 
	C344.163025,187.326752 350.972412,180.762894 357.959167,174.393158 
	C365.538330,167.483337 373.051544,160.509323 381.106018,154.116455 
	C386.378815,149.931396 391.051331,144.990067 396.253662,140.218460 
	C396.910583,139.896133 397.270996,139.682724 397.819397,139.185333 
	C398.042908,138.961334 398.026855,139.041214 397.986908,139.033203 
	C398.196564,138.796188 398.440430,138.561279 398.846802,138.129944 
	C399.015869,137.940384 399.009338,138.014053 398.972504,138.010818 
	C399.188049,137.796204 399.433960,137.577545 399.842102,137.171448 
z"/>
<path fill="#242422" opacity="1.000000" stroke="none" 
	d="
M340.892090,240.760193 
	C349.669708,232.481201 358.202545,224.416138 366.910583,216.544922 
	C378.094574,206.435760 389.412628,196.474747 400.687012,186.465820 
	C404.528931,183.055191 408.413635,179.692825 412.527313,176.094482 
	C414.048431,176.420181 415.422516,176.464203 417.140503,176.843491 
	C417.522919,176.990738 417.884796,177.235046 417.922546,177.339935 
	C418.087646,177.866104 418.296722,178.243027 418.811035,178.809174 
	C419.045349,179.036850 418.987946,178.995758 419.008514,178.967056 
	C419.149048,179.163422 419.269043,179.388474 419.205505,179.949188 
	C419.022003,180.284866 419.022583,180.662460 418.996033,180.849396 
	C418.811005,181.193054 418.652557,181.349808 418.249878,181.734955 
	C416.163147,186.562988 411.949249,189.002167 408.469391,191.977554 
	C392.181030,205.904526 376.648071,220.658951 360.753418,235.016403 
	C335.204315,258.094604 310.506805,282.051605 286.243134,306.466156 
	C284.858063,307.859833 283.657074,309.581818 281.117432,309.954651 
	C279.824341,310.815308 278.716797,310.415863 277.335693,310.224152 
	C277.056702,308.574005 277.113281,307.147858 277.147705,305.293640 
	C277.624207,303.939056 278.358948,303.155884 278.878479,301.877625 
	C298.100006,281.949005 317.248322,262.357666 337.306946,243.236496 
	C337.923492,242.878281 338.283417,242.676529 338.815491,242.174500 
	C339.029144,241.946701 339.019257,242.023972 338.980621,242.019058 
	C339.433929,241.504639 340.221771,241.548279 340.892090,240.760193 
z"/>
<path fill="#222320" opacity="1.000000" stroke="none" 
	d="
M312.749146,117.329422 
	C318.959259,109.835716 326.930725,104.557533 333.380737,97.251434 
	C334.575623,96.308136 335.683838,95.808083 336.860809,94.808914 
	C347.984650,85.144478 357.882660,74.607010 369.401337,65.922409 
	C372.017059,63.950294 375.707886,61.546062 378.243500,64.503151 
	C380.850983,67.544052 377.817810,70.833252 375.426971,73.066444 
	C364.155334,83.594681 352.882080,94.130638 341.320343,104.336365 
	C326.878510,117.084358 313.047455,130.480881 299.280823,143.922760 
	C288.728149,154.226471 278.834259,165.214859 268.098083,175.354309 
	C265.449249,177.855927 262.675537,180.234558 259.851624,182.537766 
	C258.326904,183.781342 256.410553,185.366928 254.544479,183.605774 
	C252.474503,181.652161 253.347290,179.354538 254.967987,177.375656 
	C256.859985,175.065521 258.770447,172.770523 260.879150,170.198059 
	C261.420380,169.709976 261.754059,169.490814 261.976624,168.991150 
	C262.011261,168.260178 262.155640,167.807739 262.462067,167.178558 
	C262.996643,166.837555 263.342712,166.629807 263.873108,166.156647 
	C266.908478,163.153320 269.729065,160.365326 272.753296,157.319366 
	C273.206848,156.826996 273.444763,156.581024 273.838928,156.129395 
	C274.007172,155.935379 274.002411,156.002274 273.969421,155.996231 
	C274.369690,155.656738 274.867310,155.495911 275.652100,155.345154 
	C277.150482,152.113968 279.488770,149.767944 281.767395,147.428070 
	C287.962433,141.066452 294.251617,134.796539 300.743530,128.256256 
	C301.233917,127.803101 301.466705,127.566696 301.846741,127.126358 
	C302.011536,126.939697 302.005157,127.008408 301.971008,127.003586 
	C302.686920,126.464386 303.505280,126.034264 304.546692,125.315529 
	C305.901062,123.897202 306.955170,122.649605 308.254791,121.225494 
	C308.901398,120.900131 309.265594,120.687943 309.817596,120.186462 
	C310.042358,119.960617 310.032074,120.041656 309.991547,120.036522 
	C310.198517,119.797173 310.441986,119.558823 310.858704,119.132324 
	C311.035370,118.947693 311.027802,119.033348 310.984985,119.029564 
	C311.529358,118.580376 312.255768,118.290817 312.749146,117.329422 
z"/>
<path fill="#242422" opacity="1.000000" stroke="none" 
	d="
M180.106979,225.231491 
	C169.800049,234.757858 159.709824,244.037903 149.514725,253.201294 
	C137.172256,264.294708 125.650993,276.232849 113.678436,287.705231 
	C111.884415,289.424255 109.528130,291.835571 106.818962,289.155396 
	C104.318169,286.681366 104.307823,283.691010 106.994614,281.268036 
	C117.604576,271.700012 126.570618,260.555542 137.079285,250.810654 
	C151.048752,237.856461 165.539490,225.510315 179.676697,212.764130 
	C189.995789,203.460342 201.176987,195.112732 212.229523,186.162338 
	C214.119095,184.913269 215.886414,184.572357 217.859146,184.421188 
	C220.980865,184.181976 221.973572,185.407242 221.243073,188.725891 
	C218.292755,195.428452 212.268524,198.540512 207.539169,202.807526 
	C199.931442,209.671539 191.438339,215.523285 183.746124,222.793869 
	C183.087189,223.110672 182.723419,223.321106 182.173309,223.822388 
	C181.949066,224.047714 181.958939,223.955994 182.004791,223.960922 
	C181.571838,224.494278 180.782669,224.453873 180.106979,225.231491 
z"/>
<path fill="#242422" opacity="1.000000" stroke="none" 
	d="
M75.302681,222.773239 
	C74.626656,222.961227 74.154984,222.984253 73.329391,222.989136 
	C71.398018,221.527679 71.396828,219.654831 71.775497,217.405228 
	C81.968445,206.190811 91.920280,195.296768 101.910263,184.437805 
	C106.499397,179.449493 112.030106,175.342667 115.865814,169.297241 
	C122.489716,166.079819 126.486542,160.129044 131.557861,155.489532 
	C143.538589,144.528931 155.584015,133.648285 167.914917,123.084557 
	C168.912064,122.230316 170.026825,121.382088 171.236221,120.933594 
	C173.938873,119.931313 177.000244,119.138542 178.934631,121.983147 
	C180.975296,124.984039 178.292206,126.834625 176.362488,128.567093 
	C152.525284,149.967560 128.841599,171.536560 106.193665,194.201553 
	C97.980614,202.420822 90.214348,211.086395 82.237900,219.542358 
	C80.633865,221.242844 78.984589,222.893051 76.350983,223.523315 
	C75.903847,223.184769 75.715088,222.890396 75.302681,222.773239 
z"/>
<path fill="#242522" opacity="1.000000" stroke="none" 
	d="
M59.757248,192.262421 
	C56.479874,189.889984 56.545532,187.424500 58.567684,184.745041 
	C66.299995,174.499237 76.101486,166.149109 84.499756,156.555405 
	C92.261559,147.688751 101.525383,140.298981 108.679474,130.870255 
	C111.666885,126.932999 115.746712,123.891228 119.347137,120.517761 
	C128.783035,111.676659 138.122223,102.738091 147.488953,93.825272 
	C149.367233,92.038002 151.836899,90.750969 154.229431,89.663475 
	C156.169006,88.781860 158.722794,88.281975 160.255310,90.150368 
	C161.948975,92.215202 161.207733,94.595161 159.361847,96.440735 
	C154.776520,101.025307 150.334518,105.776802 145.494720,110.078468 
	C135.185303,119.241577 125.147751,128.688110 115.431099,138.464966 
	C104.566986,149.396423 93.844704,160.471649 83.203857,171.620941 
	C78.063034,177.007416 73.290802,182.744095 68.259102,188.237396 
	C67.044960,189.562927 65.463387,190.551895 63.780712,191.855804 
	C62.418434,192.462051 61.301109,192.738495 59.757248,192.262421 
z"/>
<path fill="#242522" opacity="1.000000" stroke="none" 
	d="
M312.925354,316.133240 
	C319.261444,309.888580 325.624237,303.936615 331.982605,297.979797 
	C338.117981,292.231934 344.248749,286.479156 350.595856,280.498138 
	C350.846924,279.208038 351.682617,279.571747 352.546021,279.301086 
	C356.797241,273.254456 362.743622,269.374207 367.773651,264.591095 
	C376.308472,256.475220 385.320221,248.860809 394.134766,241.039291 
	C394.757050,240.487091 395.332153,239.816605 396.056183,239.456161 
	C398.345520,238.316437 401.168945,237.171814 402.983582,239.328430 
	C404.983093,241.704727 403.590698,244.156387 401.396637,246.248795 
	C385.307495,261.592804 368.926331,276.615234 352.252228,291.320557 
	C350.634827,292.746979 349.171936,294.348663 347.328430,296.013824 
	C345.796814,295.950134 345.182343,296.880310 344.184479,297.737183 
	C340.034027,304.889740 333.455444,309.407715 327.791626,314.582642 
	C320.308960,321.419434 313.402313,328.816315 305.989014,335.703278 
	C304.163696,337.398987 302.284973,338.989868 300.136932,340.802917 
	C298.279419,341.749359 296.697845,341.867065 295.074371,340.218384 
	C294.588898,335.338165 296.615967,332.070251 300.126801,329.427612 
	C304.021423,326.495972 306.314575,321.834930 310.925415,319.146759 
	C311.513855,318.448608 311.479095,317.872406 311.827087,317.161316 
	C311.970764,316.935364 311.993713,316.990845 311.963684,316.990479 
	C312.253967,316.768066 312.592773,316.579315 312.925354,316.133240 
z"/>
<path fill="#242422" opacity="1.000000" stroke="none" 
	d="
M160.298645,295.704071 
	C154.228104,301.389038 148.358322,306.778503 142.604691,312.289246 
	C140.692520,314.120667 138.675293,315.315582 135.586273,315.102173 
	C133.962463,314.881378 133.592743,313.969910 133.367004,312.574036 
	C132.719650,309.377625 133.853607,307.183807 135.934235,305.190674 
	C148.529968,293.124756 161.526901,281.497894 174.365646,269.699066 
	C182.557098,262.171082 190.930939,254.880661 199.443542,247.754669 
	C208.711075,239.996704 218.357651,232.691513 228.140060,225.113785 
	C228.863678,224.913254 229.241333,224.704620 229.810059,224.191589 
	C230.039658,223.958664 230.006683,224.024002 229.973999,224.007538 
	C230.680786,223.278732 231.664886,223.614227 232.779175,223.172028 
	C233.040192,222.954590 233.002502,223.023880 232.967850,223.005051 
	C234.273575,221.853546 235.767319,222.230423 237.657013,222.759491 
	C238.059052,222.971832 238.005814,222.990402 238.016098,222.964142 
	C238.374878,223.388504 238.500748,223.919617 238.748444,224.684875 
	C239.536301,227.274918 238.634308,228.765945 236.727600,230.387192 
	C225.015106,240.346069 212.359909,249.150330 200.801041,259.772705 
	C200.138992,260.089844 199.757141,260.291504 199.187622,260.806030 
	C198.955658,261.036926 198.988586,260.962067 199.026031,260.978485 
	C198.619385,261.368469 198.083557,261.501221 197.281799,261.712402 
	C192.351868,268.366669 185.345398,272.397369 179.607620,277.797424 
	C174.235886,282.852997 168.427917,287.520355 162.761230,292.763489 
	C161.827896,293.243530 161.489670,293.792999 161.185059,294.782654 
	C160.978638,295.053253 160.977661,294.977509 161.015533,294.976990 
	C160.883850,295.136261 160.714294,295.296051 160.298645,295.704071 
z"/>
<path fill="#242522" opacity="1.000000" stroke="none" 
	d="
M152.785461,337.969452 
	C162.336365,328.792755 171.476349,319.861786 181.076431,311.456299 
	C196.771469,297.714355 211.711273,283.065125 228.755875,270.918335 
	C233.603210,267.463898 237.522980,262.772705 243.360901,260.122620 
	C245.044434,258.957214 246.607224,259.691620 248.476196,259.771667 
	C249.476166,260.506226 250.081528,261.010925 250.849365,261.772095 
	C251.527542,262.700928 251.800415,263.422516 251.251404,264.609894 
	C249.189651,266.487335 247.342392,268.022156 245.250885,269.774170 
	C244.758041,270.207275 244.527069,270.440643 244.151062,270.876526 
	C243.988434,271.061646 243.978836,270.985718 244.016785,270.980896 
	C243.888977,271.131805 243.723206,271.287506 243.318237,271.686462 
	C227.242859,283.987000 212.213379,297.028381 197.030350,309.875519 
	C189.566238,316.191284 182.504272,322.982910 175.272278,329.572296 
	C170.130478,334.257202 165.008575,338.963989 159.617767,343.842834 
	C157.455978,345.310089 155.892334,344.198212 153.868134,343.152771 
	C153.439224,342.994690 153.071594,342.760712 153.030212,342.657288 
	C152.311386,341.240143 152.506546,339.839661 152.785461,337.969452 
z"/>
<path fill="#242522" opacity="1.000000" stroke="none" 
	d="
M208.925049,329.281921 
	C214.014862,329.124786 217.117844,325.091644 220.117172,322.303741 
	C232.507019,310.787140 245.682068,300.301514 259.185974,290.176758 
	C261.307983,288.585693 263.610687,287.942535 265.333649,290.105347 
	C267.189240,292.434662 266.904022,294.854523 264.297424,297.034515 
	C248.158798,310.531799 231.851349,323.845398 216.122772,337.808899 
	C204.587143,348.050018 193.850967,359.191650 182.759979,369.933472 
	C182.521179,370.164734 182.317856,370.434265 182.069839,370.654144 
	C179.604614,372.839569 176.563538,376.157593 173.616486,373.486755 
	C170.245117,370.431274 173.460266,366.908905 175.837677,364.511108 
	C186.100174,354.160919 196.506256,343.950134 207.024963,333.860535 
	C208.433350,332.509613 208.690689,331.158844 208.925049,329.281921 
z"/>
<path fill="#242522" opacity="1.000000" stroke="none" 
	d="
M195.684052,393.105042 
	C200.657944,386.175964 206.819168,381.143494 212.799072,375.782806 
	C218.948685,370.269989 224.969971,364.567230 231.108627,359.007751 
	C243.163712,348.090057 255.867386,337.988678 269.221924,328.191833 
	C270.136749,327.770355 270.786804,327.490875 271.765839,327.175781 
	C272.037445,326.950806 272.020447,327.032349 271.979675,327.023865 
	C272.195129,326.793427 272.441437,326.560883 272.853577,326.134338 
	C273.027802,325.949341 273.027924,326.027618 272.988770,326.027740 
	C273.117920,325.867004 273.286163,325.706116 273.699524,325.296631 
	C277.616028,323.030121 277.404144,326.986206 278.705383,328.337738 
	C280.242157,329.933838 278.922241,331.261108 277.513580,332.417847 
	C267.258392,340.839264 256.989410,349.245087 246.819702,357.769043 
	C238.173920,365.015747 229.606369,372.357880 221.095444,379.762634 
	C214.336258,385.643372 207.715073,391.682709 200.783173,397.834198 
	C195.206726,398.659912 194.393005,397.936249 195.684052,393.105042 
z"/>
<path fill="#222320" opacity="1.000000" stroke="none" 
	d="
M179.861572,164.159744 
	C180.081024,163.921188 180.517319,163.899963 180.735474,163.889587 
	C184.851181,165.677612 185.229919,167.558197 182.284225,170.594681 
	C180.601776,172.328995 177.693420,173.270325 178.305847,176.870300 
	C176.741394,179.341385 174.887100,181.080078 172.608307,182.832825 
	C171.951431,183.178024 171.604645,183.420456 171.160309,184.023376 
	C170.879730,184.500641 170.724136,184.669479 170.393356,184.903748 
	C169.956604,185.155258 169.684784,185.341888 169.258331,185.732559 
	C166.730682,188.159805 164.376358,190.410202 161.769226,192.837860 
	C161.122986,193.112854 160.766861,193.285461 160.256256,193.771255 
	C160.058899,193.998276 160.065140,194.063446 160.032486,194.061188 
	C159.709274,194.289673 159.455093,194.554794 159.141846,195.117706 
	C148.872543,203.812012 139.211929,212.804382 129.743744,222.012329 
	C120.016495,231.472168 110.247078,240.888840 100.461510,250.288376 
	C98.795982,251.888199 97.055458,253.465759 94.291595,253.965820 
	C93.229637,254.673187 92.368385,254.474365 91.172073,254.221680 
	C87.775597,251.562622 87.208443,249.574890 90.829689,246.699341 
	C98.343430,240.732864 103.825439,232.684311 111.063583,226.326370 
	C119.098724,219.268372 126.514969,211.505798 134.469849,203.843536 
	C138.910599,204.762558 142.303146,203.542282 145.379883,200.555038 
	C149.917282,196.149582 155.153656,192.331802 156.867081,185.388580 
	C159.034470,180.921387 163.302795,178.834015 166.296280,175.158844 
	C166.925552,174.866547 167.263474,174.687851 167.752884,174.218231 
	C167.941833,173.998199 167.934021,173.934830 167.965790,173.938034 
	C168.244339,173.736298 168.486145,173.525604 168.882309,173.128998 
	C172.020615,170.405533 174.999573,167.862274 178.236694,165.145325 
	C178.915512,164.857071 179.299911,164.669922 179.861572,164.159744 
z"/>
<path fill="#242522" opacity="1.000000" stroke="none" 
	d="
M219.773560,412.258728 
	C232.286758,397.953796 246.965698,386.601959 260.763672,374.286041 
	C265.818909,369.773834 270.538971,364.899048 276.675568,361.188599 
	C278.373749,359.855774 279.978790,360.638519 281.926880,360.774658 
	C285.597168,364.045166 283.420502,366.490906 281.147644,368.429871 
	C263.433838,383.541718 245.872452,398.821808 228.817017,414.678253 
	C227.879257,415.550079 226.585648,416.039124 225.138550,416.851013 
	C221.276489,417.685913 219.626694,416.099426 219.773560,412.258728 
z"/>
<path fill="#242522" opacity="1.000000" stroke="none" 
	d="
M350.832397,318.976715 
	C351.162964,318.898285 351.652618,318.987000 351.892883,319.051636 
	C352.253448,319.242462 352.373810,319.368622 352.681030,319.677765 
	C354.604919,327.203094 348.550354,330.756195 344.740326,334.747589 
	C333.758484,346.252197 322.621735,357.647705 310.742523,368.264893 
	C310.390533,368.579559 310.233459,369.112274 309.781403,369.780151 
	C308.718475,370.407440 307.819153,370.551575 306.469421,370.252197 
	C305.771057,369.590118 305.484314,369.135712 305.094849,368.432983 
	C304.333160,366.986877 304.176117,365.735626 304.790833,363.976074 
	C316.560272,352.379700 326.936829,340.064789 338.722107,329.107971 
	C341.351105,326.663757 343.572357,323.704956 346.682190,321.206787 
	C348.044617,320.201050 349.244293,319.574738 350.832397,318.976715 
z"/>
<path fill="#242522" opacity="1.000000" stroke="none" 
	d="
M245.232697,434.686981 
	C244.709412,434.996948 244.361633,435.061066 243.750275,435.093994 
	C242.929169,434.756256 242.492722,434.359406 242.286926,433.408508 
	C241.850693,428.459167 243.636963,425.237671 247.599640,422.275177 
	C253.276917,418.030853 258.343964,412.910126 263.354004,407.849243 
	C269.207214,401.936615 275.753815,396.840668 281.932190,391.315308 
	C283.725616,389.711487 285.901093,388.931030 288.676788,389.370239 
	C290.220795,390.988281 291.371002,392.477020 289.434875,394.568695 
	C287.941345,398.742065 284.286926,400.641357 281.531738,403.108917 
	C270.525818,412.966034 260.166565,423.556152 248.184418,432.823547 
	C247.223251,433.752380 245.870255,433.287872 245.232697,434.686981 
z"/>
<path fill="#242522" opacity="1.000000" stroke="none" 
	d="
M178.460052,177.051819 
	C176.436768,176.153046 173.303696,178.664185 172.709473,175.465607 
	C172.128098,172.336121 175.029877,171.511353 177.296890,170.572266 
	C180.011139,169.447952 181.734070,167.760544 181.011154,164.213470 
	C182.934738,161.191986 185.130783,158.786865 188.433960,157.664978 
	C190.746002,156.879700 193.287476,156.329834 194.584061,158.799698 
	C195.953278,161.407852 195.777176,164.149063 192.929932,166.218643 
	C188.143997,169.697372 183.486221,173.352432 178.460052,177.051819 
z"/>
<path fill="#242522" opacity="1.000000" stroke="none" 
	d="
M156.712036,185.132706 
	C159.031723,189.145218 157.957977,192.582626 154.830505,195.431763 
	C150.791489,199.111389 146.512390,202.531235 142.534912,206.273621 
	C138.760239,209.825211 136.593414,208.536392 134.904053,203.955643 
	C141.799271,197.302490 148.616791,190.684174 156.712036,185.132706 
z"/>
<path fill="#41413E" opacity="1.000000" stroke="none" 
	d="
M221.312073,188.923584 
	C220.462097,183.356125 216.411133,185.790482 212.913330,185.945496 
	C214.195053,181.242920 217.927689,184.157181 220.535645,184.275406 
	C222.912537,184.383148 221.876892,187.005402 221.312073,188.923584 
z"/>
<path fill="#41413E" opacity="1.000000" stroke="none" 
	d="
M195.645050,392.926910 
	C194.833481,396.288147 196.692490,397.559448 200.147980,397.983337 
	C198.601074,399.298584 196.345993,399.557220 194.781433,397.996429 
	C193.411682,396.629974 193.369354,394.532440 195.645050,392.926910 
z"/>
<path fill="#41413E" opacity="1.000000" stroke="none" 
	d="
M219.726654,412.142853 
	C220.408859,414.370911 221.844437,415.984344 224.489014,416.927795 
	C220.145157,418.063599 219.374084,417.400330 219.726654,412.142853 
z"/>
<path fill="#41413E" opacity="1.000000" stroke="none" 
	d="
M71.727669,217.301178 
	C72.296211,218.789124 72.591415,220.507721 72.931053,222.598648 
	C70.209152,221.789780 71.232635,219.548691 71.727669,217.301178 
z"/>
<path fill="#41413E" opacity="1.000000" stroke="none" 
	d="
M294.783264,340.110107 
	C296.320587,340.227570 297.747040,340.615295 299.545654,341.032379 
	C297.994934,342.177094 296.124237,342.891083 294.783264,340.110107 
z"/>
<path fill="#41413E" opacity="1.000000" stroke="none" 
	d="
M289.428772,394.730530 
	C289.980804,393.227875 289.647858,391.709930 289.076141,389.851166 
	C291.537537,390.903809 291.897247,392.633423 289.428772,394.730530 
z"/>
<path fill="#141411" opacity="1.000000" stroke="none" 
	d="
M344.226624,297.833557 
	C344.425812,296.769501 345.035522,295.781586 346.781860,296.086182 
	C346.183014,296.684753 345.346497,297.210907 344.226624,297.833557 
z"/>
<path fill="#41413E" opacity="1.000000" stroke="none" 
	d="
M237.846893,222.742157 
	C236.635147,222.963196 235.211243,222.954559 233.360260,222.966080 
	C234.262741,220.469849 235.968765,221.689835 237.846893,222.742157 
z"/>
<path fill="#41413E" opacity="1.000000" stroke="none" 
	d="
M153.691559,343.222473 
	C155.129562,343.299957 156.819916,343.605225 158.933990,343.967590 
	C157.268951,346.511444 155.620636,344.846954 153.691559,343.222473 
z"/>
<path fill="#41413E" opacity="1.000000" stroke="none" 
	d="
M450.135803,102.699127 
	C451.048523,103.881500 451.112915,105.584274 451.018372,107.690994 
	C449.503448,106.621086 450.091522,104.797585 450.135803,102.699127 
z"/>
<path fill="#41413E" opacity="1.000000" stroke="none" 
	d="
M208.976135,328.979492 
	C208.283951,329.207947 207.751678,330.103668 206.900131,329.608185 
	C206.682404,329.481506 206.566010,328.651428 206.738327,328.478363 
	C207.368073,327.846008 208.123581,327.871460 208.857727,328.758728 
	C208.910049,329.009460 208.978424,329.013611 208.976135,328.979492 
z"/>
<path fill="#41413E" opacity="1.000000" stroke="none" 
	d="
M248.694397,259.735931 
	C247.424911,259.992035 245.979034,259.982483 244.095428,259.978516 
	C245.052841,257.684662 246.857788,259.262054 248.694397,259.735931 
z"/>
<path fill="#41413E" opacity="1.000000" stroke="none" 
	d="
M282.088928,360.774109 
	C280.849396,360.998657 279.348267,361.015320 277.398682,361.014465 
	C278.334625,358.120911 280.160950,360.248840 282.088928,360.774109 
z"/>
<path fill="#41413E" opacity="1.000000" stroke="none" 
	d="
M450.986664,108.359680 
	C452.078094,109.635864 452.065002,111.559731 452.060547,113.886810 
	C450.415558,112.691223 451.144165,110.654564 450.986664,108.359680 
z"/>
<path fill="#41413E" opacity="1.000000" stroke="none" 
	d="
M59.423798,192.233276 
	C60.495052,192.007202 61.586033,192.009140 63.093826,192.013550 
	C62.217472,192.735641 61.068012,194.767776 59.423798,192.233276 
z"/>
<path fill="#41413E" opacity="1.000000" stroke="none" 
	d="
M350.909271,318.788666 
	C349.970459,319.533997 348.777985,320.169708 347.259705,320.898315 
	C347.732574,319.509277 349.080994,318.912170 350.909271,318.788666 
z"/>
<path fill="#41413E" opacity="1.000000" stroke="none" 
	d="
M304.792511,363.758972 
	C304.974823,364.771423 304.959930,366.014160 304.968567,367.720795 
	C303.770264,366.889252 303.294464,365.523224 304.792511,363.758972 
z"/>
<path fill="#41413E" opacity="1.000000" stroke="none" 
	d="
M133.221985,312.561462 
	C133.826843,313.055725 134.395844,313.828979 135.083160,314.866455 
	C133.235794,315.505859 133.173889,314.205750 133.221985,312.561462 
z"/>
<path fill="#41413E" opacity="1.000000" stroke="none" 
	d="
M417.263245,176.786041 
	C416.175995,176.757675 414.829102,176.524612 413.129028,176.086060 
	C414.290802,175.476364 415.666962,175.909698 417.263245,176.786041 
z"/>
<path fill="#41413E" opacity="1.000000" stroke="none" 
	d="
M336.725830,94.673767 
	C336.121338,95.242043 335.198578,95.987938 333.935425,96.874870 
	C334.322021,96.020851 335.122345,95.121056 336.725830,94.673767 
z"/>
<path fill="#242522" opacity="1.000000" stroke="none" 
	d="
M45.973389,124.301964 
	C46.451817,125.190407 46.566799,126.386360 45.943909,127.882721 
	C45.865784,126.982811 45.906208,125.793221 45.973389,124.301964 
z"/>
<path fill="#41413E" opacity="1.000000" stroke="none" 
	d="
M152.767303,337.810852 
	C152.989441,338.838745 152.989120,340.189789 152.988800,342.047363 
	C152.010345,341.164001 151.862442,339.690704 152.767303,337.810852 
z"/>
<path fill="#41413E" opacity="1.000000" stroke="none" 
	d="
M304.546570,125.170441 
	C304.062775,125.703117 303.278564,126.261421 302.215576,126.909241 
	C302.468658,126.093010 303.212006,125.458260 304.546570,125.170441 
z"/>
<path fill="#41413E" opacity="1.000000" stroke="none" 
	d="
M107.267952,64.661263 
	C107.010643,63.745399 107.012970,62.620838 107.013916,61.072395 
	C108.085167,61.794548 107.939835,63.105484 107.267952,64.661263 
z"/>
<path fill="#41413E" opacity="1.000000" stroke="none" 
	d="
M245.337006,434.830658 
	C245.820114,434.343628 246.583069,433.754395 247.639877,433.107727 
	C247.161438,433.609650 246.389145,434.169067 245.337006,434.830658 
z"/>
<path fill="#41413E" opacity="1.000000" stroke="none" 
	d="
M251.277863,264.861481 
	C251.029785,264.221588 251.022675,263.490631 251.013702,262.394165 
	C252.416550,262.714050 252.745926,263.598358 251.277863,264.861481 
z"/>
<path fill="#41413E" opacity="1.000000" stroke="none" 
	d="
M352.576630,279.084656 
	C352.346375,279.449341 351.851654,279.755676 351.083557,280.164856 
	C350.627747,279.872467 350.182770,279.327026 350.308167,279.107819 
	C350.862427,278.138947 351.630371,279.091919 352.576630,279.084656 
z"/>
<path fill="#41413E" opacity="1.000000" stroke="none" 
	d="
M277.158020,310.272705 
	C278.003815,310.025146 279.007477,310.050140 280.384644,310.040100 
	C279.735229,310.978241 278.560944,310.987488 277.158020,310.272705 
z"/>
<path fill="#41413E" opacity="1.000000" stroke="none" 
	d="
M278.757812,301.813293 
	C278.531372,302.536865 278.066986,303.489441 277.364105,304.653748 
	C276.998047,303.631927 277.747009,302.831207 278.757812,301.813293 
z"/>
<path fill="#41413E" opacity="1.000000" stroke="none" 
	d="
M312.655243,117.215317 
	C312.412140,117.641792 311.912109,118.182487 311.177124,118.874481 
	C311.427521,118.460358 311.912933,117.894943 312.655243,117.215317 
z"/>
<path fill="#41413E" opacity="1.000000" stroke="none" 
	d="
M232.702179,222.961090 
	C232.229050,223.280334 231.417908,223.606079 230.274048,223.961456 
	C230.748947,223.649918 231.556549,223.308762 232.702179,222.961090 
z"/>
<path fill="#41413E" opacity="1.000000" stroke="none" 
	d="
M91.019424,254.237320 
	C91.589859,254.012924 92.371574,254.017365 93.543137,254.011185 
	C93.183563,255.034073 92.252945,255.016022 91.019424,254.237320 
z"/>
<path fill="#41413E" opacity="1.000000" stroke="none" 
	d="
M54.437386,158.817535 
	C54.659534,158.346710 55.180397,157.825211 55.928673,157.144012 
	C55.901230,157.752518 55.675114,158.543640 54.437386,158.817535 
z"/>
<path fill="#41413E" opacity="1.000000" stroke="none" 
	d="
M50.071781,155.355774 
	C50.379257,155.620407 50.619003,156.089935 50.929699,156.814941 
	C50.220329,156.862961 49.647449,156.518570 50.071781,155.355774 
z"/>
<path fill="#41413E" opacity="1.000000" stroke="none" 
	d="
M115.987762,168.968094 
	C115.087631,168.845535 114.189354,168.757889 113.055191,168.419144 
	C112.785316,167.918549 112.751335,167.669067 113.094116,167.393494 
	C114.214706,167.717636 114.958519,168.067902 115.811050,168.707977 
	C115.919762,168.997818 115.989624,169.003021 115.987762,168.968094 
z"/>
<path fill="#41413E" opacity="1.000000" stroke="none" 
	d="
M306.276794,370.298584 
	C306.937683,370.013245 307.817566,369.981934 309.137390,369.983795 
	C308.681244,370.949646 307.646576,371.085114 306.276794,370.298584 
z"/>
<path fill="#41413E" opacity="1.000000" stroke="none" 
	d="
M180.196960,225.325531 
	C180.470093,225.144119 181.003418,224.758698 181.793701,224.169556 
	C181.519485,224.351074 180.988312,224.736298 180.196960,225.325531 
z"/>
<path fill="#41413E" opacity="1.000000" stroke="none" 
	d="
M311.712219,317.071899 
	C311.817200,317.449310 311.663635,317.963226 311.315735,318.669617 
	C311.232208,318.310822 311.342926,317.759644 311.712219,317.071899 
z"/>
<path fill="#41413E" opacity="1.000000" stroke="none" 
	d="
M297.799072,232.153625 
	C297.740326,232.465546 297.465302,232.985367 297.055054,233.769852 
	C297.140808,233.476852 297.361816,232.919189 297.799072,232.153625 
z"/>
<path fill="#41413E" opacity="1.000000" stroke="none" 
	d="
M103.401207,69.730705 
	C103.598946,69.494217 104.074684,69.293724 104.806572,69.050522 
	C104.601555,69.260773 104.140373,69.513741 103.401207,69.730705 
z"/>
<path fill="#41413E" opacity="1.000000" stroke="none" 
	d="
M105.231628,68.918732 
	C105.174934,68.598579 105.343658,68.134026 105.652939,67.464447 
	C105.681343,67.764381 105.569191,68.269356 105.231628,68.918732 
z"/>
<path fill="#41413E" opacity="1.000000" stroke="none" 
	d="
M340.789978,240.656876 
	C340.540955,240.865646 340.022888,241.271179 339.223419,241.845428 
	C339.468323,241.627304 339.994659,241.240479 340.789978,240.656876 
z"/>
<path fill="#41413E" opacity="1.000000" stroke="none" 
	d="
M261.696838,168.889343 
	C261.696747,169.066681 261.526642,169.420761 261.220978,169.851013 
	C261.137390,169.591354 261.284515,169.304337 261.696838,168.889343 
z"/>
<path fill="#41413E" opacity="1.000000" stroke="none" 
	d="
M242.165985,433.462982 
	C242.475830,433.618408 242.825653,434.090210 243.331085,434.812378 
	C243.059784,434.634949 242.632874,434.207153 242.165985,433.462982 
z"/>
<path fill="#41413E" opacity="1.000000" stroke="none" 
	d="
M197.324707,261.850189 
	C197.533020,261.608459 198.029663,261.372284 198.794891,261.065491 
	C198.580002,261.281830 198.096497,261.568787 197.324707,261.850189 
z"/>
<path fill="#41413E" opacity="1.000000" stroke="none" 
	d="
M242.406219,436.629028 
	C243.053940,436.875305 242.963608,437.213928 242.503082,437.524963 
	C242.412918,437.271118 242.322769,437.017303 242.406219,436.629028 
z"/>
<path fill="#41413E" opacity="1.000000" stroke="none" 
	d="
M238.925659,224.606537 
	C238.630997,224.432861 238.344543,223.963699 238.042236,223.216217 
	C238.328873,223.395615 238.631363,223.853348 238.925659,224.606537 
z"/>
<path fill="#41413E" opacity="1.000000" stroke="none" 
	d="
M271.681030,326.952515 
	C271.403839,327.227325 270.770233,327.503815 269.805969,327.896393 
	C270.091797,327.659729 270.708221,327.306976 271.681030,326.952515 
z"/>
<path fill="#41413E" opacity="1.000000" stroke="none" 
	d="
M101.656746,60.364433 
	C101.508385,60.624504 101.148705,61.092655 100.624496,61.810173 
	C100.788452,61.563862 101.116936,61.068184 101.656746,60.364433 
z"/>
<path fill="#41413E" opacity="1.000000" stroke="none" 
	d="
M310.750671,171.902283 
	C310.531586,172.128723 310.015167,172.457230 309.216125,172.900894 
	C309.440094,172.678818 309.946686,172.341583 310.750671,171.902283 
z"/>
<path fill="#41413E" opacity="1.000000" stroke="none" 
	d="
M275.621582,155.241211 
	C275.416931,155.457199 274.934662,155.666473 274.194397,155.932968 
	C274.405640,155.738297 274.874786,155.486404 275.621582,155.241211 
z"/>
<path fill="#41413E" opacity="1.000000" stroke="none" 
	d="
M312.695312,315.993866 
	C312.680084,316.187103 312.459625,316.531525 312.086426,316.933044 
	C312.119141,316.708405 312.304596,316.426727 312.695312,315.993866 
z"/>
<path fill="#41413E" opacity="1.000000" stroke="none" 
	d="
M161.220123,294.830933 
	C161.364426,294.529053 161.750198,294.004852 162.321014,293.207397 
	C162.157898,293.492310 161.809738,294.050446 161.220123,294.830933 
z"/>
<path fill="#41413E" opacity="1.000000" stroke="none" 
	d="
M272.779114,326.057373 
	C272.795013,326.195862 272.562225,326.442352 272.134155,326.852112 
	C272.136047,326.732086 272.333221,326.448761 272.779114,326.057373 
z"/>
<path fill="#41413E" opacity="1.000000" stroke="none" 
	d="
M397.759766,139.097504 
	C397.698792,139.194931 397.354645,139.428513 396.762573,139.855789 
	C396.835266,139.777542 397.155945,139.505600 397.759766,139.097504 
z"/>
<path fill="#41413E" opacity="1.000000" stroke="none" 
	d="
M352.796936,319.692108 
	C352.699463,319.700348 352.534576,319.536346 352.253235,319.242493 
	C352.381317,319.178375 352.578918,319.314087 352.796936,319.692108 
z"/>
<path fill="#41413E" opacity="1.000000" stroke="none" 
	d="
M273.722961,325.145813 
	C273.755676,325.296509 273.542694,325.522461 273.127686,325.876831 
	C273.053558,325.710205 273.237457,325.448792 273.722961,325.145813 
z"/>
<path fill="#242522" opacity="1.000000" stroke="none" 
	d="
M217.425659,369.412903 
	C217.523758,369.342499 217.565445,369.608551 217.565445,369.608551 
	C217.565445,369.608551 217.327576,369.483337 217.425659,369.412903 
z"/>
<path fill="#41413E" opacity="1.000000" stroke="none" 
	d="
M308.793701,173.094467 
	C308.750214,173.192642 308.456757,173.425842 307.954071,173.848602 
	C308.011139,173.768616 308.277435,173.499069 308.793701,173.094467 
z"/>
<path fill="#41413E" opacity="1.000000" stroke="none" 
	d="
M418.231079,181.886383 
	C418.179138,181.717697 418.378479,181.495270 418.786621,181.166199 
	C418.918243,181.373505 418.747223,181.631210 418.231079,181.886383 
z"/>
<path fill="#41413E" opacity="1.000000" stroke="none" 
	d="
M364.237671,182.141342 
	C364.205414,181.989105 364.416687,181.671921 364.842804,181.166138 
	C364.865540,181.310501 364.673370,181.643448 364.237671,182.141342 
z"/>
<path fill="#41413E" opacity="1.000000" stroke="none" 
	d="
M365.261963,180.918793 
	C365.319275,180.807465 365.675690,180.570831 366.294373,180.146698 
	C366.224762,180.237305 365.892914,180.515396 365.261963,180.918793 
z"/>
<path fill="#41413E" opacity="1.000000" stroke="none" 
	d="
M419.177185,180.129333 
	C419.013031,180.060394 419.004059,179.835907 419.012085,179.274902 
	C419.202637,179.157150 419.401886,179.362000 419.533173,179.603760 
	C419.569672,179.670975 419.404846,179.847458 419.177185,180.129333 
z"/>
<path fill="#41413E" opacity="1.000000" stroke="none" 
	d="
M418.923615,178.736023 
	C418.806610,178.682358 418.567871,178.327850 418.144714,177.709106 
	C418.240845,177.774963 418.521362,178.105087 418.923615,178.736023 
z"/>
<path fill="#41413E" opacity="1.000000" stroke="none" 
	d="
M53.827003,124.943161 
	C53.893955,124.792488 54.334206,124.548416 55.116692,124.140282 
	C55.039387,124.267403 54.619846,124.558586 53.827003,124.943161 
z"/>
<path fill="#242522" opacity="1.000000" stroke="none" 
	d="
M167.667938,174.090546 
	C167.636108,174.217911 167.330399,174.437637 166.787384,174.815826 
	C166.831421,174.710495 167.112732,174.446701 167.667938,174.090546 
z"/>
<path fill="#41413E" opacity="1.000000" stroke="none" 
	d="
M309.754272,120.091858 
	C309.697632,120.197365 309.352905,120.434120 308.754242,120.859932 
	C308.822266,120.773689 309.144196,120.498398 309.754272,120.091858 
z"/>
<path fill="#242522" opacity="1.000000" stroke="none" 
	d="
M168.809662,173.046936 
	C168.820496,173.181000 168.592148,173.405899 168.177094,173.782379 
	C168.190918,173.675858 168.384293,173.410461 168.809662,173.046936 
z"/>
<path fill="#41413E" opacity="1.000000" stroke="none" 
	d="
M112.983101,167.968597 
	C112.237198,167.667648 112.079521,167.283813 113.275528,167.292725 
	C113.362892,167.501328 113.254890,167.635254 112.983101,167.968597 
z"/>
<path fill="#41413E" opacity="1.000000" stroke="none" 
	d="
M263.790161,166.031311 
	C263.779846,166.200836 263.471802,166.460388 262.893921,166.860901 
	C262.913574,166.708328 263.203003,166.414825 263.790161,166.031311 
z"/>
<path fill="#41413E" opacity="1.000000" stroke="none" 
	d="
M301.758606,127.029831 
	C301.812408,127.210640 301.613281,127.481590 301.198883,127.887383 
	C301.157623,127.721481 301.331665,127.420723 301.758606,127.029831 
z"/>
<path fill="#242522" opacity="1.000000" stroke="none" 
	d="
M179.773651,164.022293 
	C179.731934,164.159164 179.382843,164.397156 178.764297,164.803391 
	C178.818649,164.688889 179.142456,164.406143 179.773651,164.022293 
z"/>
<path fill="#41413E" opacity="1.000000" stroke="none" 
	d="
M51.078087,157.221512 
	C51.196152,157.249466 51.434780,157.535172 51.850662,158.037750 
	C51.751495,157.996170 51.475075,157.737717 51.078087,157.221512 
z"/>
<path fill="#41413E" opacity="1.000000" stroke="none" 
	d="
M273.750183,156.033356 
	C273.805756,156.217865 273.604340,156.500336 273.179932,156.922089 
	C273.135712,156.751358 273.314453,156.441330 273.750183,156.033356 
z"/>
<path fill="#41413E" opacity="1.000000" stroke="none" 
	d="
M399.754639,137.063583 
	C399.797455,137.246140 399.584076,137.500992 399.153198,137.881714 
	C399.123260,137.717010 399.310852,137.426453 399.754639,137.063583 
z"/>
<path fill="#41413E" opacity="1.000000" stroke="none" 
	d="
M398.774475,138.050690 
	C398.793335,138.196823 398.570801,138.453262 398.147614,138.867432 
	C398.142334,138.737122 398.337708,138.449051 398.774475,138.050690 
z"/>
<path fill="#41413E" opacity="1.000000" stroke="none" 
	d="
M182.242813,223.927689 
	C182.291306,223.808823 182.633530,223.569931 183.232330,223.148438 
	C183.171448,223.246429 182.854004,223.527039 182.242813,223.927689 
z"/>
<path fill="#41413E" opacity="1.000000" stroke="none" 
	d="
M160.284302,295.868286 
	C160.218292,295.682465 160.424850,295.448730 160.862854,295.113770 
	C160.973175,295.311523 160.794037,295.580811 160.284302,295.868286 
z"/>
<path fill="#41413E" opacity="1.000000" stroke="none" 
	d="
M243.295441,271.834412 
	C243.266556,271.689423 243.476440,271.470581 243.881714,271.124634 
	C243.949860,271.284607 243.768875,271.538940 243.295441,271.834412 
z"/>
<path fill="#41413E" opacity="1.000000" stroke="none" 
	d="
M244.239380,270.972961 
	C244.188080,270.796295 244.387741,270.530975 244.796997,270.128479 
	C244.834518,270.289001 244.662445,270.586639 244.239380,270.972961 
z"/>
<path fill="#41413E" opacity="1.000000" stroke="none" 
	d="
M199.253235,260.907562 
	C199.316605,260.804871 199.677567,260.572845 200.298889,260.150024 
	C200.223099,260.232239 199.886948,260.505219 199.253235,260.907562 
z"/>
<path fill="#41413E" opacity="1.000000" stroke="none" 
	d="
M338.731567,242.047668 
	C338.706635,242.198593 338.384125,242.450485 337.794739,242.860062 
	C337.829926,242.728043 338.131958,242.438339 338.731567,242.047668 
z"/>
<path fill="#41413E" opacity="1.000000" stroke="none" 
	d="
M298.789551,230.864594 
	C298.792603,230.990158 298.568146,231.301529 298.149506,231.824799 
	C298.157562,231.707932 298.359772,231.379166 298.789551,230.864594 
z"/>
<path fill="#41413E" opacity="1.000000" stroke="none" 
	d="
M229.736542,224.076736 
	C229.685303,224.198517 229.330948,224.438370 228.708893,224.858444 
	C228.771927,224.757385 229.102676,224.476105 229.736542,224.076736 
z"/>
<path fill="#41413E" opacity="1.000000" stroke="none" 
	d="
M75.352470,223.057434 
	C75.247635,223.212265 75.471992,223.389618 75.920746,223.481873 
	C75.915588,223.387863 75.761093,223.282257 75.352470,223.057434 
z"/>
<path fill="#242522" opacity="1.000000" stroke="none" 
	d="
M159.253815,195.196381 
	C159.250504,195.080078 159.460587,194.784683 159.835266,194.274109 
	C159.822281,194.378372 159.644730,194.697845 159.253815,195.196381 
z"/>
<path fill="#242522" opacity="1.000000" stroke="none" 
	d="
M160.339996,193.899704 
	C160.380463,193.777603 160.702042,193.556946 161.270004,193.175690 
	C161.217972,193.277115 160.919540,193.539124 160.339996,193.899704 
z"/>
<path fill="#242522" opacity="1.000000" stroke="none" 
	d="
M169.299042,185.786713 
	C169.337097,185.700867 169.592468,185.496460 170.049118,185.145996 
	C170.022400,185.240509 169.777725,185.463257 169.299042,185.786713 
z"/>
<path fill="#41413E" opacity="1.000000" stroke="none" 
	d="
M362.303314,183.895355 
	C362.301636,183.732086 362.569641,183.494934 363.073822,183.124069 
	C363.064331,183.267395 362.818665,183.544434 362.303314,183.895355 
z"/>
<path fill="#41413E" opacity="1.000000" stroke="none" 
	d="
M310.803619,119.072021 
	C310.801880,119.196114 310.568390,119.444527 310.142944,119.862167 
	C310.157959,119.753036 310.364929,119.474693 310.803619,119.072021 
z"/>
<path fill="#242522" opacity="1.000000" stroke="none" 
	d="
M171.251831,184.112183 
	C171.299530,184.012024 171.592636,183.718887 172.116180,183.214508 
	C172.063477,183.308563 171.780350,183.613876 171.251831,184.112183 
z"/>
<path fill="#242522" opacity="1.000000" stroke="none" 
	d="
M126.715897,218.568420 
	C125.462883,220.014221 124.208618,221.273468 122.597778,219.684921 
	C121.967850,219.063705 122.629265,218.103973 123.308907,217.643768 
	C124.648041,216.737045 126.139084,215.598740 126.715897,218.568420 
z"/>
<path fill="#242522" opacity="1.000000" stroke="none" 
	d="
M162.375336,183.967087 
	C164.298553,184.181763 164.186447,185.181564 163.475739,186.291946 
	C163.108475,186.865753 162.374771,187.103531 161.829697,186.656143 
	C160.646896,185.685211 160.989426,184.769882 162.375336,183.967087 
z"/>
<path fill="#242522" opacity="1.000000" stroke="none" 
	d="
M167.810989,180.655975 
	C167.637131,180.457382 167.557678,180.246292 167.478226,180.035217 
	C167.605148,180.015900 167.732086,179.996567 167.859009,179.977249 
	C167.874481,180.199326 167.889938,180.421417 167.810989,180.655975 
z"/>
<path fill="#242522" opacity="1.000000" stroke="none" 
	d="
M130.839050,215.751556 
	C131.392090,215.736267 131.535416,216.022400 131.158905,216.244781 
	C130.777557,216.470016 130.581711,216.214066 130.839050,215.751556 
z"/>
<path fill="#242522" opacity="1.000000" stroke="none" 
	d="
M135.502258,211.483887 
	C135.486282,211.485855 135.518250,211.481934 135.502258,211.483887 
z"/>
</svg>